<svg xmlns="http://www.w3.org/2000/svg" width="512" height="512" fill="none" viewBox="0 0 512 512"><rect width="512" height="512" fill="#050705" rx="96"/><path fill="#c6f33f" d="M448.229 109c1.654 27.874-6.232 66.026-19.339 103.782-13.318 38.368-33.117 79.454-57.794 113.459-24.176 33.313-55.691 63.477-93.597 73.596-37.605 10.037-75.277-1.09-109.55-33.898-21.045 12.584-42.805 22.822-64.555 29.285l-25.338 7.527L63 352.078l25.336-7.529c15.13-4.496 30.742-11.533 46.345-20.394-15.631-26.975-20.921-54.416-16.93-81.002 5.446-36.283 27.463-66.124 53.198-87.568 25.8-21.498 57.607-36.543 87.331-42.44 27.901-5.535 62.862-4.426 84.832 19.399 6.909 7.491 8.675 16.32 8.878 22.56.203 6.205-1.013 12.045-2.425 16.815-2.837 9.593-8.036 20.007-14.174 30.256-12.477 20.834-31.779 45.817-54.973 70.7-19.469 20.885-42.533 42.604-67.653 62.172 20.102 16.06 37.02 17.471 51.1 13.714 20.489-5.47 42.931-23.925 64.446-53.57 21.011-28.955 38.635-65.166 50.64-99.745 12.216-35.19 17.555-65.637 16.506-83.317zm-152.372 55.335c-5.795-1.396-14.631-1.848-27.29.664-20.755 4.117-44.525 15.156-63.777 31.198-19.317 16.096-31.828 35.25-34.763 54.803-1.85 12.326-.218 26.945 8.657 43.578 22.628-17.468 44.196-37.506 63.066-57.749 21.444-23.004 38.231-45.023 48.287-61.814 2.486-4.152 4.394-7.717 5.82-10.68"/></svg>